<?xml version="1.0" encoding="utf-8"?>
<!-- Generator: Adobe Illustrator 27.0.1, SVG Export Plug-In . SVG Version: 6.00 Build 0)  -->
<svg version="1.1" xmlns="http://www.w3.org/2000/svg" xmlns:xlink="http://www.w3.org/1999/xlink" x="0px" y="0px"
	 viewBox="0 0 1080 1080" style="enable-background:new 0 0 1080 1080;" xml:space="preserve">
<style type="text/css">
	.st0{display:none;}
	.st1{display:inline;fill:#1F1A2F;}
	.st2{fill:url(#SVGID_1_);}
	.st3{fill:url(#SVGID_00000090266381217047784580000006310739910354475909_);}
	.st4{fill:url(#SVGID_00000023274979227576528040000009206577503116396689_);}
	.st5{fill:url(#SVGID_00000020362944634037991080000002393735232188099484_);}
	.st6{fill:#D6C6FF;}
</style>
<g id="Layer_2" class="st0">
	<rect class="st1" width="1080" height="1080"/>
</g>
<g id="Layer_1">
	<g>
		<g>
			<g>
				<linearGradient id="SVGID_1_" gradientUnits="userSpaceOnUse" x1="631.7418" y1="652.2612" x2="174.2244" y2="388.1135">
					<stop  offset="0" style="stop-color:#EA96FF"/>
					<stop  offset="0.2836" style="stop-color:#BA9EFF"/>
					<stop  offset="0.6786" style="stop-color:#BA9EFF"/>
					<stop  offset="1" style="stop-color:#C8F0FF"/>
				</linearGradient>
				<path class="st2" d="M183.42,731.66l99.19-452.29c7.38-33.07,17.04-76.31,14.24-103.64c46.73,5.98,129.35,22.65,177.68,33.44
					c156.86,35.02,224.12,152.4,179.07,354.19c-46.75,209.42-155.46,277.73-308.93,243.47l-130.57-29.15
					C189.5,772.18,178.31,754.55,183.42,731.66z M348.28,774.69c111.07,24.8,187.55-34.68,229.76-223.76
					c42.02-188.23,0.37-284.76-110.7-309.55l-100.05-22.34l-118.21,533.5L348.28,774.69z"/>
			</g>
			<g>
				
					<linearGradient id="SVGID_00000026880909453893049450000018053897851591205546_" gradientUnits="userSpaceOnUse" x1="924.4365" y1="666.2343" x2="656.9262" y2="511.7872">
					<stop  offset="0" style="stop-color:#EA96FF"/>
					<stop  offset="0.2836" style="stop-color:#BA9EFF"/>
					<stop  offset="0.6786" style="stop-color:#BA9EFF"/>
					<stop  offset="1" style="stop-color:#C8F0FF"/>
				</linearGradient>
				<path style="fill:url(#SVGID_00000026880909453893049450000018053897851591205546_);" d="M674.35,790l110.73-496.01
					c5.3-23.74,25.28-33.52,48.18-28.41c19.5,4.35,30.14,16.52,35.6,23.97c-17.18,29.1-28.44,75.54-47.93,162.88l-77.98,349.32
					c-6.44,28.83,0.99,47.4,22.19,52.13c11.87,2.65,26.76-0.26,35.35-10.8c4.7,10.84,4.97,21.58,3.46,28.37
					c-6.06,27.13-37.82,37.84-70.04,30.65C683.01,890.74,661.1,849.35,674.35,790z"/>
			</g>
			<g>
				
					<linearGradient id="SVGID_00000009569168715141345970000013667518741677199286_" gradientUnits="userSpaceOnUse" x1="213.5133" y1="522.165" x2="86.4513" y2="448.8057">
					<stop  offset="0" style="stop-color:#EA96FF"/>
					<stop  offset="0.2836" style="stop-color:#BA9EFF"/>
					<stop  offset="0.6786" style="stop-color:#BA9EFF"/>
					<stop  offset="1" style="stop-color:#C8F0FF"/>
				</linearGradient>
				<path style="fill:url(#SVGID_00000009569168715141345970000013667518741677199286_);" d="M89.17,622.34
					c3.41-15.26,20-25.8,35.26-22.39c15.26,3.41,25.8,20,22.39,35.26s-20,25.8-35.26,22.39C96.3,654.2,85.76,637.6,89.17,622.34z
					 M153.14,335.76c3.41-15.26,20-25.8,35.26-22.39c15.26,3.41,25.8,20,22.39,35.26c-3.41,15.26-20,25.8-35.26,22.39
					C160.27,367.62,149.74,351.02,153.14,335.76z"/>
			</g>
			<g>
				
					<linearGradient id="SVGID_00000050654100980625677710000010762492909125685395_" gradientUnits="userSpaceOnUse" x1="993.5483" y1="696.3028" x2="866.4857" y2="622.9432">
					<stop  offset="0" style="stop-color:#EA96FF"/>
					<stop  offset="0.2836" style="stop-color:#BA9EFF"/>
					<stop  offset="0.6786" style="stop-color:#BA9EFF"/>
					<stop  offset="1" style="stop-color:#C8F0FF"/>
				</linearGradient>
				<path style="fill:url(#SVGID_00000050654100980625677710000010762492909125685395_);" d="M869.2,796.48
					c3.41-15.26,20-25.8,35.26-22.39c15.26,3.41,25.8,20,22.39,35.26c-3.41,15.26-20,25.8-35.26,22.39
					C876.33,828.33,865.79,811.74,869.2,796.48z M933.18,509.9c3.41-15.26,20-25.8,35.26-22.39c15.26,3.41,25.8,20,22.39,35.26
					c-3.41,15.26-20,25.8-35.26,22.39C940.31,541.75,929.77,525.16,933.18,509.9z"/>
			</g>
		</g>
		<g>
			<path class="st6" d="M540,20c70.2,0,138.3,13.75,202.4,40.86c61.92,26.19,117.53,63.69,165.29,111.45
				c47.76,47.76,85.26,103.37,111.45,165.29C1046.25,401.7,1060,469.8,1060,540s-13.75,138.3-40.86,202.4
				c-26.19,61.92-63.69,117.53-111.45,165.29c-47.76,47.76-103.37,85.26-165.29,111.45C678.3,1046.25,610.2,1060,540,1060
				s-138.3-13.75-202.4-40.86c-61.92-26.19-117.53-63.69-165.29-111.45C124.54,859.94,87.05,804.32,60.86,742.4
				C33.75,678.3,20,610.2,20,540s13.75-138.3,40.86-202.4c26.19-61.92,63.69-117.53,111.45-165.29
				c47.76-47.76,103.37-85.26,165.29-111.45C401.7,33.75,469.8,20,540,20 M540,8C246.18,8,8,246.18,8,540s238.18,532,532,532
				s532-238.18,532-532S833.82,8,540,8L540,8z"/>
		</g>
	</g>
</g>
</svg>
