<?xml version="1.0" encoding="UTF-8"?>
<svg version="1.1" xmlns="http://www.w3.org/2000/svg" width="3240" height="3240">
<path d="M0 0 C3.49421398 0.00316218 6.98757887 -0.02043225 10.48168945 -0.0456543 C31.1697998 -0.10459969 51.64262024 1.65860912 71.88208008 6.06567383 C73.6864856 6.45190918 73.6864856 6.45190918 75.52734375 6.84594727 C124.42013205 17.62260736 167.72225207 41.4725671 205.19458008 74.31567383 C206.07243164 75.08137695 206.9502832 75.84708008 207.85473633 76.63598633 C215.15389096 83.16846717 222.07239315 90.08949035 229.00708008 97.00317383 C229.75728424 97.74935974 229.75728424 97.74935974 230.52264404 98.51062012 C236.2998642 104.2643778 241.92571141 110.08882904 247.19458008 116.31567383 C248.10706096 117.37190496 249.01980664 118.42790743 249.93286133 119.48364258 C277.49125504 151.80934567 300.4972116 187.73516818 320.19458008 225.31567383 C320.92257812 226.70375244 320.92257812 226.70375244 321.6652832 228.11987305 C361.40396941 304.4689365 384.49644505 390.10168563 400.19458008 511.31567383 C400.39156494 513.1798999 400.39156494 513.1798999 400.5925293 515.08178711 C401.84616323 527.19087107 402.48869574 539.14255351 402.19458008 551.31567383 C402.85458008 551.31567383 403.51458008 551.31567383 404.19458008 551.31567383 C404.17572754 550.3139917 404.156875 549.31230957 404.13745117 548.28027344 C403.99308727 537.05627723 404.70860201 526.04189054 405.81958008 514.87817383 C405.90694427 513.98160065 405.99430847 513.08502747 406.08432007 512.1612854 C414.65120917 424.89657313 434.74013038 338.02220251 554.40063477 122.54907227 C556.22791378 120.44330802 558.03342212 118.32200756 559.8203125 116.18188477 C566.80415325 107.85308572 574.17514803 100.02187633 581.88574219 92.36376953 C583.76646536 90.49384242 585.63614827 88.61334745 587.50512695 86.73168945 C594.42909128 79.79975798 601.47998603 73.36815158 609.19458008 67.31567383 C610.43857932 66.29210279 611.67983655 65.265182 612.91723633 64.23364258 C651.07982894 32.86336326 696.49684867 12.73438066 745.00708008 4.06567383 C746.27479248 3.83883911 746.27479248 3.83883911 747.56811523 3.60742188 C750.43851529 3.12703268 753.31101608 2.71000551 756.19458008 2.31567383 C757.14136124 2.18486923 757.14136124 2.18486923 758.10726929 2.05142212 C772.68235199 0.10349339 787.19560577 -0.043661 801.88208008 0.00317383 C803.09789764 0.00532898 804.31371521 0.00748413 805.56637573 0.00970459 C824.62407898 0.06383113 843.29719245 0.68016146 862.19458008 3.31567383 C862.89172119 3.41041992 863.5888623 3.50516602 864.30712891 3.6027832 C901.74161868 8.69217735 938.66901576 16.73448488 975.19458008 26.31567383 C970.49882348 31.96104369 965.47789914 37.16288276 960.27099609 42.33691406 C958.95518555 43.65053421 958.95518555 43.65053421 957.61279297 44.99069214 C955.71674193 46.88295172 953.81981996 48.77428598 951.92132759 50.66409111 C948.91269506 53.65909982 945.90797104 56.65800972 942.90379333 59.65748596 C935.98342853 66.56585219 929.05804895 73.46918407 922.13259888 80.37245178 C915.7833767 86.70143754 909.43524789 93.03150999 903.09117645 99.3656593 C900.11149616 102.34039043 897.12940316 105.31267404 894.1453687 108.28303707 C891.8440933 110.57502819 889.54610486 112.87031151 887.24755859 115.16503906 C886.43123459 115.97619675 885.61491058 116.78735443 884.77384949 117.62309265 C883.62388992 118.77294647 883.62388992 118.77294647 882.45069885 119.94602966 C881.79387902 120.60062888 881.13705919 121.2552281 880.46033573 121.92966366 C878.62053671 123.86710963 876.88359704 125.83491103 875.14735317 127.86290073 C870.26153888 133.47597726 864.96196522 138.67989262 859.6940918 143.9296875 C858.52963019 145.09386872 857.36539077 146.25827223 856.20135307 147.42287731 C853.01767728 150.60684736 849.83090629 153.78770337 846.64361095 156.96804953 C843.20069783 160.40456847 839.76070615 163.84400961 836.32037354 167.28311157 C830.36287612 173.23772658 824.40360684 179.19056351 818.44317627 185.14224243 C809.81734066 193.75550617 801.19476061 202.37202318 792.5730598 210.98942554 C778.57300387 224.98241879 764.5710816 238.97354281 750.56762695 252.96313477 C749.73006827 253.79986564 748.89250959 254.63659651 748.02957034 255.49868286 C741.23396907 262.28753964 734.43827738 269.07630592 727.64258194 275.86506844 C721.70219009 281.79940761 715.76183435 287.73378292 709.8215332 293.66821289 C708.98499734 294.50392063 708.14846147 295.33962837 707.28657603 296.20066059 C693.33453995 310.13900703 679.38447019 324.07931984 665.43580055 338.02103519 C656.83635212 346.61600535 648.2351301 355.20919331 639.63160658 363.80008435 C633.7369652 369.68629453 627.84409713 375.57427605 621.95261621 381.46364951 C618.5545886 384.86033342 615.15573836 388.25618357 611.75467682 391.64982986 C608.63878626 394.75895264 605.52523095 397.87039458 602.413481 400.98366129 C601.28995759 402.10691417 600.16558897 403.22932245 599.04027152 404.35077798 C593.75545047 409.61830894 588.55883149 414.90999007 583.70303047 420.58054638 C581.40128546 423.228178 578.94269326 425.7028604 576.45545959 428.17504883 C575.92270037 428.70866248 575.38994114 429.24227613 574.84103769 429.7920599 C573.08241791 431.55230678 571.32028544 433.30899165 569.55810547 435.06567383 C568.28593816 436.33755864 567.01399186 437.60966452 565.74224854 438.88197327 C562.30905702 442.31545031 558.87280299 445.74584718 555.43596959 449.17567825 C551.83738549 452.76798807 548.24165517 456.36315212 544.64561462 459.95800781 C537.84444607 466.75607504 531.04073363 473.55159029 524.23609203 480.34618092 C516.48560584 488.0854687 508.73797737 495.82761461 500.99058163 503.56999588 C485.06174751 519.48839274 469.12934753 535.40321656 453.19458008 551.31567383 C454.48164026 550.35730855 455.7677549 549.39767334 457.0534668 548.4375 C458.12792557 547.63610847 458.12792557 547.63610847 459.22409058 546.81852722 C461.36172989 545.18819197 463.35221016 543.45972113 465.31958008 541.62817383 C470.72307146 536.7585879 476.44624306 532.32432598 482.19213867 527.87231445 C484.28942558 526.24194365 486.37737026 524.60014166 488.46411133 522.95629883 C525.98839241 493.46290757 566.2690304 466.99847133 608.50024414 444.73852539 C611.01717569 443.40935929 613.5250808 442.06478742 616.03051758 440.71411133 C679.43920141 406.67344861 748.77589228 383.16082526 820.06958008 373.06567383 C821.12330811 372.91461182 822.17703613 372.7635498 823.26269531 372.60791016 C844.11674517 369.81887565 864.98464262 368.93524304 886.00708008 369.00317383 C887.18669312 369.00499664 888.36630615 369.00681946 889.58166504 369.00869751 C906.97307069 369.05385738 924.00662299 369.45194561 941.19458008 372.31567383 C942.26836914 372.48728027 943.3421582 372.65888672 944.44848633 372.83569336 C999.55549299 381.85100629 1049.63245367 406.10655783 1091.19458008 443.31567383 C1092.14977539 444.16000977 1093.1049707 445.0043457 1094.08911133 445.87426758 C1100.41738517 451.56192273 1106.47871328 457.50052741 1112.50708008 463.50317383 C1113.63678223 464.6258667 1113.63678223 464.6258667 1114.78930664 465.77124023 C1119.46216748 470.45754667 1123.89623193 475.28500957 1128.19458008 480.31567383 C1129.0720382 481.3249154 1129.94963103 482.33403989 1130.82739258 483.34301758 C1137.73955763 491.41443289 1144.23424708 499.75478454 1150.62426758 508.24389648 C1152.03745087 510.10836685 1153.46981593 511.95513134 1154.91333008 513.79614258 C1170.74065117 534.16811255 1184.72704405 556.33287467 1198.19458008 578.31567383 C1198.73888672 579.2019043 1199.28319336 580.08813477 1199.84399414 581.0012207 C1201.55156386 583.7891289 1203.25016021 586.58225664 1204.94458008 589.37817383 C1205.47132324 590.24289307 1205.99806641 591.1076123 1206.54077148 591.99853516 C1207.01949707 592.79541748 1207.49822266 593.5922998 1207.99145508 594.41333008 C1208.4178125 595.11981689 1208.84416992 595.82630371 1209.28344727 596.55419922 C1210.19458008 598.31567383 1210.19458008 598.31567383 1210.19458008 600.31567383 C966.32458008 600.64567383 722.45458008 600.97567383 471.19458008 601.31567383 C484.39458008 602.63567383 497.59458008 603.95567383 511.19458008 605.31567383 C568.65037388 612.85419997 625.28661845 624.63087155 680.19458008 643.31567383 C680.8425354 643.53523743 681.49049072 643.75480103 682.15808105 643.98101807 C700.84409071 650.31784726 719.15848377 657.28540941 737.19458008 665.31567383 C738.25451172 665.78585937 739.31444336 666.25604492 740.40649414 666.74047852 C786.96658676 687.51041412 831.16003467 713.26058227 870.45043945 745.87573242 C872.90624745 747.9032178 875.39780876 749.88573079 877.88208008 751.87817383 C883.61923853 756.58076273 889.03096879 761.60352003 894.43823242 766.67700195 C896.25906679 768.37583991 898.09429434 770.05792893 899.93286133 771.73754883 C908.11727309 779.24123536 915.84312152 786.99490085 923.19458008 795.31567383 C923.68522949 795.86690918 924.17587891 796.41814453 924.68139648 796.98608398 C981.56614835 861.12248552 1004.12843355 940.12006575 999.73022461 1025.09277344 C996.9869278 1070.09304596 987.96465722 1114.30996045 977.29614258 1158.01879883 C977.11312088 1158.77310181 976.93009918 1159.52740479 976.74153137 1160.30456543 C975.73480297 1164.3799261 974.58313483 1168.34904356 973.19458008 1172.31567383 C968.31445575 1168.21938231 963.70737209 1163.97191484 959.21179199 1159.45986938 C958.54513094 1158.79476833 957.8784699 1158.12966727 957.191607 1157.44441164 C954.97472882 1155.23149866 952.76141432 1153.01505673 950.5480957 1150.79858398 C948.9527368 1149.20458112 947.35716545 1147.61079085 945.76139832 1146.01719666 C941.43889227 1141.69924115 937.11954553 1137.37813831 932.80090141 1133.05632067 C928.27465042 1128.52753336 923.74595486 1124.00119164 919.21765137 1119.47445679 C911.1265189 1111.38525886 903.03790857 1103.29354541 894.95028931 1095.20083539 C887.62899359 1087.87507383 880.30508224 1080.55193583 872.97924805 1073.23071289 C864.45784147 1064.71466766 855.93813014 1056.19693317 847.42087889 1047.67673147 C842.91750883 1043.17180521 838.41347258 1038.66755059 833.90766907 1034.16505814 C829.67008443 1029.93037012 825.4349688 1025.693228 821.20171547 1021.45421028 C819.65101419 1019.90219092 818.09946905 1018.35101415 816.54700279 1016.80076027 C814.42146166 1014.67796821 812.29905089 1012.55209304 810.17736816 1010.42544556 C809.56830832 1009.81861643 808.95924848 1009.21178731 808.33173227 1008.58656943 C805.41086707 1005.65251286 802.60557313 1002.6697001 799.90812683 999.52837944 C795.44941312 994.3781587 790.61866357 989.60772956 785.79504395 984.8026123 C784.7502015 983.75805034 783.70558142 982.71326591 782.66116285 981.66828012 C779.80813206 978.81495544 776.95201015 975.96474296 774.09535766 973.11504483 C771.00827321 970.03436043 767.92411579 966.95074815 764.83961487 963.86747742 C759.49926473 958.53000839 754.15714353 953.19431738 748.81385803 947.85978699 C741.08032297 940.13882998 733.35004907 932.41461436 725.62065238 924.6895147 C713.06811182 912.14403529 700.51370496 899.60042541 687.95776367 887.05834961 C687.20693282 886.30834657 686.45610196 885.55834353 685.68251866 884.78561312 C680.35325558 879.46225019 675.02392561 874.13895422 669.69458008 868.81567383 C663.60680607 862.7348281 657.51906233 856.65395207 651.43139648 850.57299805 C650.68148349 849.82391318 649.9315705 849.07482831 649.15893286 848.3030439 C636.64879116 835.80659483 624.14061808 823.30817707 611.63384485 810.80835676 C603.92497154 803.10395998 596.21432609 795.40134496 588.50137436 787.70103109 C583.21644969 782.42454167 577.93330204 777.14627745 572.65154016 771.86662209 C569.60590906 768.82233382 566.5594584 765.77887756 563.51078987 762.73763084 C560.71686861 759.95048545 557.92529244 757.16101291 555.1355148 754.36972016 C554.12908361 753.36355914 553.12180953 752.35824033 552.1135816 751.35387975 C550.73589862 749.98123393 549.36166289 748.60513088 547.98755646 747.22890472 C547.22545506 746.46772512 546.46335366 745.70654552 545.67815828 744.92229986 C542.40658715 741.48864013 539.31766943 737.8849188 536.19458008 734.31567383 C500.55458008 698.67567383 464.91458008 663.03567383 428.19458008 626.31567383 C427.86458008 806.82567383 427.53458008 987.33567383 427.19458008 1173.31567383 C438.08458008 1174.80067383 438.08458008 1174.80067383 449.19458008 1176.31567383 C504.39548158 1188.07444575 554.94683098 1216.62869701 590.19458008 1261.31567383 C590.97575195 1262.27989258 591.75692383 1263.24411133 592.56176758 1264.23754883 C611.36942726 1287.91236644 625.02408957 1315.15697932 633.50708008 1344.12817383 C633.74982666 1344.9513208 633.99257324 1345.77446777 634.24267578 1346.62255859 C636.18694719 1353.55990055 637.07687365 1360.05058206 638.19458008 1367.31567383 C749.73458008 1367.31567383 861.27458008 1367.31567383 976.19458008 1367.31567383 C976.19458008 1383.48567383 976.19458008 1399.65567383 976.19458008 1416.31567383 C599.33458008 1416.31567383 222.47458008 1416.31567383 -165.80541992 1416.31567383 C-165.80541992 1400.14567383 -165.80541992 1383.97567383 -165.80541992 1367.31567383 C-55.58541992 1367.31567383 54.63458008 1367.31567383 168.19458008 1367.31567383 C168.52458008 1364.34567383 168.85458008 1361.37567383 169.19458008 1358.31567383 C170.03136864 1354.32655957 171.14515961 1350.4239325 172.25708008 1346.50317383 C172.56653564 1345.40948486 172.87599121 1344.3157959 173.19482422 1343.18896484 C177.85961332 1327.14624302 184.34459284 1312.04088596 192.19458008 1297.31567383 C192.7142334 1296.32639893 192.7142334 1296.32639893 193.24438477 1295.31713867 C198.71268635 1284.96338741 205.03465328 1275.57024536 212.19458008 1266.31567383 C212.88422852 1265.41204102 213.57387695 1264.5084082 214.28442383 1263.57739258 C225.84266062 1248.75732209 239.28568012 1234.76743756 254.19458008 1223.31567383 C254.75516113 1222.88399902 255.31574219 1222.45232422 255.89331055 1222.00756836 C264.94403698 1215.08121781 274.26029679 1208.89713472 284.19458008 1203.31567383 C284.9003418 1202.91493652 285.60610352 1202.51419922 286.33325195 1202.10131836 C314.98891876 1185.96517881 346.47121541 1176.29052516 379.19458008 1173.31567383 C378.86458008 992.80567383 378.53458008 812.29567383 378.19458008 626.31567383 C316.30270778 686.01350339 316.30270778 686.01350339 257.19458008 748.31567383 C255.61632421 749.97212372 254.02040777 751.61205866 252.4016037 753.22890472 C251.51068417 754.1211986 250.61976464 755.01349248 249.70184755 755.93282557 C248.73295731 756.89817329 247.76402116 757.86347493 246.79504395 758.82873535 C245.7502015 759.87329732 244.70558142 760.91808175 243.66116285 761.96306753 C240.80813206 764.81639222 237.95201015 767.6666047 235.09535766 770.51630282 C232.00827321 773.59698722 228.92411579 776.68059951 225.83961487 779.76387024 C220.49926473 785.10133927 215.15714353 790.43703027 209.81385803 795.77156067 C202.08032297 803.49251768 194.35004907 811.21673329 186.62065238 818.94183296 C174.06811182 831.48731237 161.51370496 844.03092224 148.95776367 856.57299805 C148.20693282 857.32300109 147.45610196 858.07300413 146.68251866 858.84573454 C140.59070589 864.93080291 134.49880265 871.01578071 128.40689564 877.10075474 C123.08168695 882.41991068 117.7565144 887.73910279 112.43139648 893.05834961 C111.68148349 893.80743448 110.9315705 894.55651935 110.15893286 895.32830375 C97.64879116 907.82475282 85.14061808 920.32317059 72.63384485 932.82299089 C64.92497154 940.52738768 57.21432609 948.23000269 49.50137436 955.93031657 C44.21644969 961.20680599 38.93330204 966.48507021 33.65154016 971.76472557 C30.60590906 974.80901383 27.5594584 977.8524701 24.51078987 980.89371681 C21.71686861 983.68086221 18.92529244 986.47033475 16.1355148 989.2616275 C15.12908361 990.26778852 14.12180953 991.27310732 13.1135816 992.27746791 C8.17060887 997.20236784 3.36622338 1002.16936125 -1.17969859 1007.46327543 C-3.93037038 1010.59747802 -6.88069844 1013.52522744 -9.83531189 1016.46582031 C-10.5069119 1017.13827475 -11.17851191 1017.81072918 -11.87046343 1018.50356102 C-14.09894202 1020.73367357 -16.3309514 1022.96021685 -18.56298828 1025.18676758 C-20.17012662 1026.79362357 -21.77704425 1028.40070034 -23.38375854 1030.00798035 C-27.73014301 1034.35465093 -32.07959694 1038.69823817 -36.42961955 1043.0412674 C-40.98112422 1047.58650758 -45.52978446 1052.13459252 -50.07875061 1056.68237305 C-57.70909263 1064.30996324 -65.34117593 1071.93580647 -72.97460938 1079.56030273 C-80.83386017 1087.41036158 -88.69205035 1095.26147966 -96.54882812 1103.11401367 C-97.27638995 1103.84118141 -97.27638995 1103.84118141 -98.01864999 1104.5830394 C-100.4521764 1107.01526069 -102.8856821 1109.44750271 -105.31917751 1111.87975502 C-125.47804834 1132.02827468 -145.6405781 1152.17313009 -165.80541992 1172.31567383 C-168.44001237 1169.68108138 -168.84925971 1166.91259752 -169.68823242 1163.39770508 C-169.86347443 1162.68573471 -170.03871643 1161.97376434 -170.2192688 1161.24021912 C-170.79848952 1158.8715832 -171.36543907 1156.50024434 -171.93041992 1154.12817383 C-172.12728394 1153.30901489 -172.32414795 1152.48985596 -172.52697754 1151.64587402 C-181.97898195 1112.24315213 -189.33262831 1072.72338934 -192.80541992 1032.31567383 C-192.87744629 1031.48148926 -192.94947266 1030.64730469 -193.02368164 1029.7878418 C-199.61010906 949.02112044 -178.72287275 870.16506712 -126.80541992 807.31567383 C-126.12044434 806.48422852 -126.12044434 806.48422852 -125.42163086 805.63598633 C-113.65966087 791.4464242 -101.07230541 777.97893545 -87.33032227 765.69213867 C-85.81062493 764.32037217 -84.31508522 762.92648299 -82.82495117 761.52270508 C-76.61703301 755.69195613 -70.1684762 750.32137743 -63.42260742 745.12426758 C-61.00032853 743.25690363 -58.6136831 741.3552058 -56.25073242 739.41333008 C-47.20256374 731.99179847 -37.77240949 725.31214185 -28.04223633 718.81469727 C-26.0304517 717.46648098 -24.03088952 716.10260557 -22.03588867 714.72973633 C16.66205152 688.24604925 59.52416307 668.06844346 103.19458008 651.31567383 C103.86706787 651.05763977 104.53955566 650.79960571 105.23242188 650.53375244 C159.48771594 629.80706783 216.85320702 616.40708925 274.25708008 608.06567383 C275.02152435 607.95260895 275.78596863 607.83954407 276.57357788 607.72305298 C296.03532726 604.87700145 315.62181724 603.27295011 335.19458008 601.31567383 C91.32458008 600.98567383 -152.54541992 600.65567383 -403.80541992 600.31567383 C-402.42274725 596.85899215 -401.17668043 594.04122751 -399.32885742 590.89379883 C-398.58224854 589.62173584 -398.58224854 589.62173584 -397.82055664 588.32397461 C-397.27931152 587.41373535 -396.73806641 586.50349609 -396.18041992 585.56567383 C-395.61210449 584.60773926 -395.04378906 583.64980469 -394.45825195 582.6628418 C-384.19752473 565.49516351 -373.38497064 548.62604309 -361.80541992 532.31567383 C-361.28882813 531.58799805 -360.77223633 530.86032227 -360.23999023 530.1105957 C-347.14726633 511.72639109 -333.61603763 493.4797296 -318.21948242 476.94067383 C-316.32001356 474.87523195 -314.48459412 472.78317292 -312.65698242 470.65551758 C-308.17269612 465.51564091 -303.37524784 460.70147925 -298.55541992 455.87817383 C-297.67756836 454.98807617 -296.7997168 454.09797852 -295.89526367 453.1809082 C-289.84638512 447.11874515 -283.50381364 441.64412024 -276.80541992 436.31567383 C-275.59689685 435.31513269 -274.39075726 434.3116974 -273.18823242 433.30395508 C-257.66016558 420.46917308 -240.70619692 409.53597279 -222.80541992 400.31567383 C-222.07210449 399.93604492 -221.33878906 399.55641602 -220.58325195 399.1652832 C-193.74212719 385.44375894 -164.51785107 376.99804395 -134.80541992 372.31567383 C-133.89083008 372.16469238 -132.97624023 372.01371094 -132.03393555 371.8581543 C-95.6159709 366.11284231 -56.26303968 367.421843 -19.80541992 372.31567383 C-19.15003235 372.40288696 -18.49464478 372.4901001 -17.81939697 372.57995605 C48.72648984 381.49544349 111.74630815 402.62250065 172.19458008 431.31567383 C173.22212402 431.80310059 174.24966797 432.29052734 175.30834961 432.79272461 C188.06747028 438.89768697 200.34432504 445.80114687 212.60717773 452.84057617 C214.84905126 454.11868523 217.09989805 455.37564658 219.36254883 456.61645508 C254.1527577 475.70918625 286.87419554 499.02387952 318.19458008 523.31567383 C318.81848633 523.7977832 319.44239258 524.27989258 320.08520508 524.77661133 C327.57615994 530.57089692 334.89147732 536.52278751 342.06176758 542.71020508 C344.43811005 544.7283916 346.89125028 546.61467296 349.39038086 548.47851562 C350.10461212 549.01188034 350.81884338 549.54524506 351.55471802 550.09477234 C352.0958725 550.49766983 352.63702698 550.90056732 353.19458008 551.31567383 C352.50527877 550.62729431 351.81597746 549.93891479 351.10578823 549.22967529 C334.31819395 532.4643003 317.53349852 515.69602742 300.75182247 498.92472839 C292.63620189 490.8142597 284.51964888 482.70472829 276.40087891 474.59741211 C269.32291993 467.52943379 262.24673236 460.45968759 255.17264849 453.38783073 C251.42843304 449.64491664 247.68334858 445.90288164 243.93614006 442.16296387 C240.40542389 438.63906128 236.87709036 435.11279024 233.35052872 431.58473015 C232.05946442 430.29393979 230.76755019 429.00399887 229.47469902 427.71499825 C227.70128317 425.94660319 225.93103332 424.17509476 224.16148376 422.40283203 C223.65659563 421.90085674 223.1517075 421.39888145 222.63151973 420.88169479 C219.98770839 418.2270119 217.47760665 415.50712085 215.04042912 412.66110229 C210.19698943 407.07838703 204.92596557 401.91557893 199.6940918 396.70166016 C198.52963019 395.53747893 197.36539077 394.37307543 196.20135307 393.20847034 C193.01767728 390.0245003 189.83090629 386.84364429 186.64361095 383.66329813 C183.20069783 380.22677919 179.76070615 376.78733805 176.32037354 373.34823608 C170.36287612 367.39362108 164.40360684 361.44078415 158.44317627 355.48910522 C149.81734066 346.87584148 141.19476061 338.25932448 132.5730598 329.64192212 C118.57300387 315.64892886 104.5710816 301.65780485 90.56762695 287.66821289 C89.73006827 286.83148202 88.89250959 285.99475115 88.02957034 285.1326648 C82.08462332 279.19361802 76.13960947 273.25463815 70.19458008 267.31567383 C63.40351835 260.53154029 56.61248685 253.74737649 49.8215332 246.96313477 C48.98499734 246.12742703 48.14846147 245.29171929 47.28657603 244.43068707 C33.33453995 230.49234063 19.38447019 216.55202782 5.43580055 202.61031246 C-3.16364788 194.01534231 -11.7648699 185.42215435 -20.36839342 176.8312633 C-26.2630348 170.94505312 -32.15590287 165.05707161 -38.04738379 159.16769814 C-41.4454114 155.77101424 -44.84426164 152.37516409 -48.24532318 148.98151779 C-51.36121374 145.87239502 -54.47476905 142.76095308 -57.586519 139.64768636 C-58.71004241 138.52443348 -59.83441103 137.40202521 -60.95972848 136.28056967 C-66.27330063 130.98438168 -71.50300297 125.66506572 -76.38477814 119.96299267 C-78.20504559 117.85228404 -80.13009074 115.86801365 -82.10191345 113.89892578 C-82.87722412 113.12224045 -83.65253479 112.34555511 -84.45133972 111.54533386 C-85.27709 110.72317886 -86.10284027 109.90102386 -86.95361328 109.05395508 C-87.84221039 108.16521194 -88.7308075 107.27646881 -89.64633179 106.36079407 C-92.05932903 103.94836998 -94.47450792 101.53817149 -96.8907249 99.12897491 C-99.42428445 96.60170943 -101.95497134 94.07157056 -104.48597717 91.54174805 C-109.26843356 86.76238726 -114.053431 81.9855791 -118.83936936 77.20970535 C-124.29244732 71.76784384 -129.74265185 66.32310833 -135.19262874 60.8781414 C-146.39372065 49.68747372 -157.59837709 38.50038208 -168.80541992 27.31567383 C-165.27060234 24.95912877 -161.83615946 24.1777425 -157.76635742 23.21411133 C-156.95019958 23.01662796 -156.13404175 22.81914459 -155.29315186 22.61567688 C-152.59080418 21.96574536 -149.88600939 21.32696858 -147.18041992 20.69067383 C-146.24760193 20.47013336 -145.31478394 20.2495929 -144.35369873 20.02236938 C-117.6668453 13.73287408 -90.84213739 8.23700976 -63.68041992 4.44067383 C-62.98644104 4.34289642 -62.29246216 4.24511902 -61.57745361 4.14437866 C-41.08304334 1.29682413 -20.69245916 -0.03894169 0 0 Z " fill="#BCEAC4" transform="translate(1216.805419921875,812.684326171875)"/>
<path d="M0 0 C83.40568495 -0.01705249 166.81137005 -0.03303104 250.21705627 -0.04234314 C252.06712971 -0.04255023 252.06712971 -0.04255023 253.95457837 -0.04276149 C280.75585928 -0.04575403 307.55714021 -0.04852427 334.35842117 -0.05106533 C347.50074758 -0.05231272 360.64307399 -0.05360927 373.78540039 -0.05493164 C375.74718529 -0.05512778 375.74718529 -0.05512778 377.7486022 -0.05532788 C420.18069639 -0.05959328 462.61278925 -0.06710761 505.04488264 -0.07629722 C548.62997929 -0.08571945 592.2150752 -0.09188303 635.80017285 -0.09391499 C641.94873749 -0.09420317 648.09730214 -0.0945288 654.24586678 -0.09487724 C656.06115065 -0.09497838 656.06115065 -0.09497838 657.91310692 -0.09508156 C677.43568691 -0.09626573 696.95826464 -0.10091037 716.4808437 -0.10683203 C736.08225158 -0.11270438 755.68365721 -0.11497173 775.28506594 -0.11350138 C786.94700821 -0.11273772 798.60894224 -0.11479587 810.27088303 -0.12079754 C818.04568197 -0.12452729 825.82047548 -0.12467797 833.5952748 -0.12183181 C838.03507062 -0.12031155 842.47485081 -0.12042931 846.91464501 -0.12488318 C850.9444013 -0.12889532 854.97412958 -0.12840377 859.00388538 -0.12413998 C860.46152041 -0.12341894 861.91915743 -0.12441603 863.37678991 -0.12723524 C865.33961561 -0.13079429 867.30245011 -0.12770911 869.2652759 -0.1241985 C870.90283848 -0.12443247 870.90283848 -0.12443247 872.57348314 -0.12467116 C875 0 875 0 876 1 C876.04063832 2.66617115 876.042721 4.33388095 876 6 C877.32 6 878.64 6 880 6 C880 18.21 880 30.42 880 43 C878.68 43 877.36 43 876 43 C876 44.98 876 46.96 876 49 C586.92 49 297.84 49 0 49 C0 32.83 0 16.66 0 0 Z " fill="#BBEAC4" transform="translate(1182,2279)"/>
<path d="M0 0 C157.74 0 315.48 0 478 0 C478 15.84 478 31.68 478 48 C320.26 48 162.52 48 0 48 C0 32.16 0 16.32 0 0 Z " fill="#BCEBC4" transform="translate(1381,2379)"/>
</svg>
